<control> default_path=Release\
<region> sample=3_Ab_r.wav pitch_keycenter=g#3 hikey=g#3
<region> sample=3_Bb_r.wav pitch_keycenter=a#3 lokey=a3 hikey=a#3
<region> sample=4_C_r.wav pitch_keycenter=c4 lokey=b3 hikey=c4
<region> sample=4_D_r.wav pitch_keycenter=d4 lokey=c#4 hikey=d4
<region> sample=4_E_r.wav pitch_keycenter=e4 lokey=d#4 hikey=e4
<region> sample=4_Gb_r.wav pitch_keycenter=f#4 lokey=f4 hikey=f#4
<region> sample=4_Ab_r.wav pitch_keycenter=g#4 lokey=g4 hikey=g#4
<region> sample=4_Bb_r.wav pitch_keycenter=a#4 lokey=a4 hikey=a#4
<region> sample=5_C_r.wav pitch_keycenter=c5 lokey=b4 hikey=c5
<region> sample=5_D_r.wav pitch_keycenter=d5 lokey=c#5 hikey=d5
<region> sample=5_E_r.wav pitch_keycenter=e5 lokey=d#5 hikey=e5
<region> sample=5_Gb_r.wav pitch_keycenter=f#5 lokey=f5 hikey=f#5
<region> sample=5_Ab_r.wav pitch_keycenter=g#5 lokey=g5 hikey=g#5
<region> sample=5_Bb_r.wav pitch_keycenter=a#5 lokey=a5